<?xml version="1.0" encoding="utf-8"?>
<!-- Generator: Adobe Illustrator 26.3.1, SVG Export Plug-In . SVG Version: 6.00 Build 0)  -->
<svg version="1.1" xmlns="http://www.w3.org/2000/svg" xmlns:xlink="http://www.w3.org/1999/xlink" x="0px" y="0px"
	 viewBox="0 0 1146.03 302.04" style="enable-background:new 0 0 1146.03 302.04;" xml:space="preserve">
<style type="text/css">
	.st0{fill:#00DFE8;}
	.st1{fill:#FFFFFF;}
</style>
<g id="Background">
</g>
<g id="Graphic_element">
</g>
<g id="Text">
	<g>
		<g>
			<g>
				<path class="st0" d="M171.13,18.99c27.77,0,54.34,8.52,76.84,24.65c22.01,15.78,38.45,37.54,47.52,62.93l-9.64,3.45
					c-17.27-48.32-63.38-80.79-114.72-80.79c-42.66,0-81.48,21.73-103.85,58.12l-8.72-5.36c11.6-18.88,27.9-34.68,47.13-45.67
					C125.52,24.98,148.15,18.99,171.13,18.99z"/>
			</g>
			<g>
				<path class="st0" d="M42.79,119.88l9.95,2.41c-2.26,9.35-3.41,19.02-3.41,28.73c0,67.16,54.64,121.79,121.79,121.79
					s121.79-54.64,121.79-121.79h10.24c0,35.27-13.73,68.42-38.67,93.36c-24.94,24.94-58.09,38.67-93.36,38.67
					s-68.42-13.73-93.36-38.67c-24.94-24.94-38.67-58.09-38.67-93.36C39.1,140.49,40.34,130.02,42.79,119.88z"/>
			</g>
			<g>
				<path class="st0" d="M163.39,59.23l66.97,66.97h-56.73v91.88L323.75,67.97l7.24,7.24L163.39,242.8V126.2H14.89v-10.24h148.5
					V59.23z M205.65,115.96l-32.01-32.01v32.01H205.65z"/>
			</g>
		</g>
		<g>
			<g>
				<path class="st1" d="M356.11,93.78h60.34v15.82h-40.74v25.06h31.22v15.54h-31.22v41.3h-19.6V93.78z"/>
				<path class="st1" d="M437.02,93.78h19.6v60.48c0,13.44,7.28,20.44,19.74,20.44c12.6,0,19.88-7,19.88-20.44V93.78h19.74v60.34
					c0,25.76-18.48,38.36-39.9,38.36s-39.06-12.6-39.06-38.36V93.78z"/>
				<path class="st1" d="M561.48,93.78v82.18h32.2v15.54h-51.8V93.78H561.48z"/>
				<path class="st1" d="M632.74,93.78v82.18h32.2v15.54h-51.8V93.78H632.74z"/>
				<path class="st1" d="M715.62,192.48c-19.6,0-32.48-11.2-33.04-26.18h10.36c0.84,8.12,6.86,17.92,22.68,17.92
					c13.58,0,21.56-7.98,21.56-18.06c0-28.84-53.76-10.64-53.76-47.46c0-15.12,12.46-26.18,31.36-26.18
					c18.62,0,29.82,10.36,31.5,23.8h-10.64c-1.12-6.86-7.7-15.26-21.28-15.4c-11.48-0.14-21,6.16-21,17.5
					c0,28.28,53.76,10.92,53.76,47.32C747.12,179.04,736.34,192.48,715.62,192.48z"/>
				<path class="st1" d="M766.02,93.64h64.26v8.12h-27.16v89.74h-9.8v-89.74h-27.3V93.64z"/>
				<path class="st1" d="M909.52,168.26H865l-8.54,23.24H846.1l35.7-96.6h11.06l35.56,96.6h-10.36L909.52,168.26z M887.26,107.22
					l-19.32,52.92h38.64L887.26,107.22z"/>
				<path class="st1" d="M994.5,92.52c21.84,0,38.08,10.92,45.08,29.68h-11.48c-5.46-13.02-16.94-21.14-33.6-21.14
					c-21.42,0-37.8,15.82-37.8,41.44c0,25.48,16.38,41.3,37.8,41.3c16.66,0,28.14-8.12,33.6-20.86h11.48
					c-7,18.48-23.24,29.4-45.08,29.4c-27.16,0-47.88-20.44-47.88-49.84C946.62,113.1,967.34,92.52,994.5,92.52z"/>
				<path class="st1" d="M1075.84,146.28v45.22h-9.8V93.64h9.8v45.78l42.42-45.78h12.46l-45.78,48.86l46.2,49h-12.88L1075.84,146.28
					z"/>
			</g>
		</g>
		<g>
			<path class="st1" d="M504.88,218.36h28.2v5.3H511.4v16.82H529v5.3H511.4v22.48h-6.51V218.36z"/>
			<path class="st1" d="M583.9,218.36h6.51v49.89h-6.51V218.36z"/>
			<path class="st1" d="M641.37,218.36h33.79v5.3h-13.6v44.59h-6.51v-44.59h-13.67V218.36z"/>
			<path class="st1" d="M765.34,218.29v49.96h-6.51l-26.2-39.73v39.73h-6.51v-49.96h6.51l26.2,39.65v-39.65H765.34z"/>
			<path class="st1" d="M846.21,223.66h-20.33v16.68h18.18v5.37h-18.18v17.18h20.33v5.37h-26.84v-49.96h26.84V223.66z"/>
			<path class="st1" d="M914.85,268.75c-10.02,0-17.11-5.58-17.25-13.81h6.94c0.43,4.15,3.36,8.3,10.31,8.3
				c6.3,0,10.02-3.58,10.02-8.3c0-13.46-26.99-4.87-26.99-23.41c0-8.23,6.66-13.82,16.54-13.82c9.52,0,15.75,5.23,16.53,12.81h-7.16
				c-0.43-3.36-3.58-7.16-9.66-7.23c-5.37-0.14-9.59,2.65-9.59,8.02c0,12.88,26.91,4.87,26.91,23.33
				C931.45,261.74,925.66,268.75,914.85,268.75z"/>
			<path class="st1" d="M999.8,268.75c-10.02,0-17.11-5.58-17.25-13.81h6.94c0.43,4.15,3.36,8.3,10.31,8.3
				c6.3,0,10.02-3.58,10.02-8.3c0-13.46-26.99-4.87-26.99-23.41c0-8.23,6.66-13.82,16.54-13.82c9.52,0,15.75,5.23,16.53,12.81h-7.16
				c-0.43-3.36-3.58-7.16-9.66-7.23c-5.37-0.14-9.59,2.65-9.59,8.02c0,12.88,26.91,4.87,26.91,23.33
				C1016.41,261.74,1010.61,268.75,999.8,268.75z"/>
		</g>
	</g>
</g>
</svg>
